<?xml version="1.0" encoding="utf-8"?>
<!-- Generator: Adobe Illustrator 25.2.0, SVG Export Plug-In . SVG Version: 6.00 Build 0)  -->
<svg version="1.1" id="Layer_1" xmlns="http://www.w3.org/2000/svg" xmlns:xlink="http://www.w3.org/1999/xlink" x="0px" y="0px"
	 viewBox="0 0 100 100" style="enable-background:new 0 0 100 100;" xml:space="preserve">
<style type="text/css">
	.st0{opacity:0.251;fill:#782243;}
	.st1{fill:#6BB5ED;}
	.st2{fill:none;stroke:#782243;stroke-linecap:round;stroke-linejoin:round;stroke-miterlimit:10;}
	.st3{fill:#FFAF9C;}
	.st4{fill:none;stroke:#F77B6F;stroke-linecap:round;stroke-linejoin:round;stroke-miterlimit:10;}
	.st5{fill:#DE435F;}
	.st6{fill:#782243;}
	.st7{fill:#A83953;}
	.st8{fill:#F77B6F;}
	.st9{fill:#FFFFFF;}
	.st10{fill:#F56773;}
</style>
<g>
	<path class="st0" d="M19.1,98.6c0-1,14.2-1.8,31.8-1.8c17.6,0,31.8,0.8,31.8,1.8c0,1-14.2,1.8-31.8,1.8
		C33.3,100.3,19.1,99.5,19.1,98.6z"/>
	<g>
		<g>
			<g>
				<path class="st1" d="M32.9,86.3c0,0-6.3-0.5-7.1,2.2c-0.6,2.1,13.4,7.4,14.1,7.1c2.4-1.2,1.3-5.4,1.2-5.9L32.9,86.3z"/>
				<path class="st2" d="M26.2,88.1c4.2,3,9.2,5.3,14.4,6.5"/>
				<path class="st2" d="M29.5,86.4c0.3,0.5,0.4,1.2,0.1,1.7"/>
				<path class="st2" d="M30.6,86.3c0.6,0.4,0.7,1.2,0.3,1.7"/>
			</g>
			<path class="st3" d="M35.3,74.5l-3.9,11.8c0,0,5.1,3.8,9.7,4.2l6.7-11.4L35.3,74.5z"/>
		</g>
		<g>
			<g>
				<path class="st1" d="M70.4,82.5c0,0,6.1-1.5,7.4,1c1.1,2-11.7,9.4-12.4,9.2c-2.6-0.8-2.4-5.2-2.4-5.6L70.4,82.5z"/>
				<path class="st2" d="M77.4,83.2c-3.5,3.7-8,6.6-12.9,8.7"/>
				<path class="st2" d="M73.8,82.1c-0.2,0.6-0.2,1.2,0.2,1.7"/>
				<path class="st2" d="M72.7,82.2c-0.5,0.5-0.5,1.3,0,1.8"/>
			</g>
			<path class="st3" d="M65.7,71.4l6.3,11c0,0-4.2,4.5-8.7,5.7l-8.9-10.1L65.7,71.4z"/>
		</g>
		<g>
			<g>
				<path class="st3" d="M21.1,50.6c0,0-2.3-4.4-3.5-3.6c-1.2,0.8-0.5,3.1-0.5,3.1s-5.2-0.8-5.4,0.5c-0.2,1.4,2.5,2,2.5,2
					s-3.3,0.8-3,1.8c0.3,1,3.8,0.8,3.8,0.8s-2.4,1.7-1.5,2.6C14.5,58.7,17,57,17,57s-1.3,1.9-0.3,2.7c1,0.8,4.4-2.3,4.8-3.8"/>
				<path class="st4" d="M17.4,51c-0.7,1-0.6,2.4,0.2,3.3"/>
			</g>
			<path class="st3" d="M20,50.4c0,0,6.4-0.5,13.8-2.4l1.1,8.9c0,0-9.4,0.5-14.3-0.5L20,50.4z"/>
		</g>
		<g>
			<g>
				<path class="st3" d="M78.1,40.6c0,0,0-4.8,1.5-4.5c1.5,0.3,1.9,2.7,1.9,2.7s4.3-2.7,5.2-1.6c0.8,1.1-1.4,2.7-1.4,2.7
					s3.4-0.5,3.5,0.5c0.2,1-3,2.1-3,2.1s3,0.7,2.6,1.8s-3.5,0.5-3.5,0.5s2,1.2,1.6,2.3c-0.5,1.1-5.1-0.4-6.2-1.6"/>
				<path class="st4" d="M81.6,39.6c1.1,0.6,1.7,1.9,1.4,3.1"/>
			</g>
			<path class="st3" d="M79,40c0,0-6.1,2-13.6,3l3.3,8.5c0,0,8.7-3.1,12.8-5.9L79,40z"/>
		</g>
		<g>
			<path class="st5" d="M43,60.9l-5,2.8l-5,11.1c0,0,7.8,5.4,16,5.9l2.9-5l3,4.5c0,0,10.2-2.6,14-7.9l-5.3-9.1L43,60.9z"/>
			<g>
				<path class="st2" d="M53.1,74.5c2.1-1.6,4.8-2.5,7.6-2.6"/>
				<path class="st2" d="M50.2,74.8c-2-0.9-4.3-1.4-6.5-1.2"/>
			</g>
		</g>
		<g>
			<path class="st1" d="M31.6,47.6c0,0,10-2.6,18.5-3.8c7.3-1.1,18.4-1.6,18.4-1.6l1.6,11.8l-7.4,2.8l1.4,7c0,0-8.7,2.7-26.8,0.4
				l0.8-5.2l-4.7,0.3L31.6,47.6z"/>
			<path class="st3" d="M45.3,43.5c0,0,2,4.9,5.6,4.5c3.7-0.4,4.2-4.8,4.2-4.8L45.3,43.5z"/>
			<path class="st2" d="M60.6,48.3c0.6,2.6,1.3,5.3,1.9,7.9"/>
			<path class="st2" d="M40.9,51.5c0.1,2.6-0.9,5.3-2.6,7.4"/>
		</g>
		<g>
			<g>
				<path class="st3" d="M64.9,31.9c0.5-2.3,3.6-3.7,6-2.7c2.3,1,3.2,4,1.7,5.8c-1.6,2-4.7,3-7.4,2.4C65.1,35.6,64.4,33.7,64.9,31.9
					z"/>
				<g>
					<path class="st4" d="M71.3,32.4c-2.1-0.4-4.4,0.7-5.2,2.4"/>
					<path class="st4" d="M70,35c0-0.9-0.7-1.8-1.6-2.2"/>
				</g>
			</g>
			<g>
				<path class="st6" d="M72.7,15.6c0,0.3-0.1,0.7-0.2,1c-1.2-0.4-2.3-0.8-3.5-1.2c2.8,5.8,1.2,13.1-3.5,17.3
					c-12,1.6-24.1,3.3-36.2,4.8c-4.9-2.9-7-9.4-6.6-13.7c-1.3,0.1-2.5,1.1-2.6,2.3c-1.5-3.2-1.2-7.9,0.5-11c0-0.1,0.1-0.1,0.1-0.2
					c1.8-3.1,4.8-4.6,8.4-5.6c2.7-5.2,5.9-7.1,11.1-8.3c5.2-1.2,12.5-0.6,17.3,1.7c3.8,1.9,8.9,1.3,12-1.4c1.2,2,0.2,4.7-1.9,6.1
					C71,8.8,73.1,12.3,72.7,15.6z"/>
				<path class="st7" d="M72.7,15.6c-0.4-1.7-1.4-3.2-2.7-4.5c-2.2-2.1-5.5-3.4-8.7-3.2c1.4-0.1,2.9-0.7,3.9-1.8
					c-4.5,0.6-8.8-0.4-12.9-1.2C48,4,43.7,3.2,39.5,4.1c-4.2,0.9-8,3.9-8.2,7.7c-4.2,0-7.9,1.2-10.7,3.1c0-0.1,0.1-0.1,0.1-0.2
					c1.8-3.1,4.8-4.6,8.4-5.6c2.7-5.2,5.9-7.1,11.1-8.3c5.2-1.2,12.5-0.6,17.3,1.7c3.8,1.9,8.9,1.3,12-1.4c1.2,2,0.2,4.7-1.9,6.1
					C71,8.8,73.1,12.3,72.7,15.6z"/>
			</g>
			<g>
				<path class="st3" d="M65.8,33.1c1.3-4.6,0.9-9.6-1-14.1c-1.4-1.7-3.3-2.6-5.3-2.8c1.2,1.7,1,4-0.3,5.6c-0.9-1.9-3.1-3-5.4-3.5
					c-2.2-0.5-4.6-0.6-6.8-1c-2.2-0.5-4.5-1.4-5.7-3.2c0.8,2.6,3.1,4.8,5.9,6.1c-4.5,2.1-10.7,0.5-13.2-3.5
					c1.5,6.2,0.6,12.9-2.7,18.6c-2.1-1.6-5.4-1.1-6.8,0.8c-1.4,1.9-0.7,4.8,1.5,6c2.2,1.2,5.4,0.4,6.9-1.5
					c8.4,4.7,19.4,5.5,28.6,2.2C65.9,41.2,67.9,36.3,65.8,33.1z"/>
				<g>
					<g>
						<path class="st4" d="M26,39.1c0.4-0.8,1.4-1.5,2.4-1.6c1-0.2,2.1,0.2,2.9,0.9"/>
						<path class="st4" d="M28.8,40.3c-0.6-0.8-0.4-2,0.4-2.7"/>
					</g>
					<path class="st4" d="M66.1,32.2c-0.1,0.3-0.2,0.6-0.3,0.9c0.8,1.4,1.1,3,0.6,4.5"/>
					<path class="st4" d="M46.1,44.5c2.8,0.3,5.7,0.3,8.5-0.1"/>
				</g>
			</g>
			<g>
				<path class="st8" d="M58.3,36.5c-0.4-1.3,0.9-2.8,2.8-3.3c2-0.5,3.9,0.2,4.3,1.6c0.4,1.3-0.9,2.8-2.8,3.3
					C60.6,38.6,58.7,37.8,58.3,36.5z"/>
				<path class="st8" d="M35.9,37.7c0.1-1.4,1.7-2.5,3.8-2.4c2,0.1,3.6,1.2,3.6,2.6c-0.1,1.4-1.7,2.5-3.8,2.4
					C37.5,40.3,35.9,39.1,35.9,37.7z"/>
				<g>
					<g>
						<path class="st6" d="M39.5,34c-0.3-1.5,0.6-2.9,1.9-3.1c1.3-0.2,2.6,0.9,2.8,2.4c0.3,1.5-0.6,2.9-1.9,3.1
							C41,36.7,39.7,35.6,39.5,34z"/>
						<path class="st9" d="M41.3,33.3c-0.5-0.5-0.6-1.3-0.1-1.6s1.2-0.1,1.7,0.4s0.6,1.3,0.1,1.6C42.6,34.1,41.8,33.9,41.3,33.3z"/>
					</g>
					<g>
						<path class="st6" d="M36.4,34.3c-0.5-1-0.6-2.2-0.2-3.3c0.4-1.1,1.2-2.1,2.4-2.7c1.1-0.6,2.5-0.7,3.6-0.2
							c1.1,0.4,2,1.3,2.3,2.4c-2.2-0.3-3.4-0.1-4.6,0.5c-0.6,0.3-1.1,0.6-1.7,1.2C37.6,32.7,37.1,33.4,36.4,34.3z"/>
					</g>
				</g>
				<g>
					<g>
						<path class="st6" d="M55.9,31.8c0.2-1.5,1.4-2.7,2.7-2.6s2.2,1.5,2,3c-0.2,1.5-1.4,2.7-2.7,2.6C56.7,34.7,55.8,33.4,55.9,31.8
							z"/>
						<path class="st9" d="M58,31.6c-0.3-0.6-0.2-1.3,0.3-1.6c0.5-0.2,1.2,0.1,1.5,0.8c0.3,0.6,0.2,1.3-0.3,1.6
							C59,32.5,58.3,32.2,58,31.6z"/>
					</g>
					<g>
						<path class="st6" d="M64,31.3c-0.8-0.9-1.4-1.6-2-2c-0.6-0.5-1.2-0.7-1.8-0.9c-0.6-0.2-1.3-0.2-2-0.1
							c-0.7,0.1-1.5,0.4-2.5,1.1c-0.2-1.2,0.3-2.5,1.4-3.2c1-0.8,2.5-1.1,3.8-0.7c1.3,0.3,2.4,1.3,3,2.4C64.4,29,64.5,30.2,64,31.3z
							"/>
					</g>
				</g>
				<g>
					<path class="st6" d="M64,21.3c-1.3,0.1-2,0.4-2.6,0.6c-0.6,0.2-1,0.3-1.5,0.4c-0.5,0.1-1,0-1.6-0.1c-0.7-0.1-1.4-0.3-2.7-0.3
						c-0.4-1.3,0.2-2.5,0.9-3.2c0.8-0.8,1.8-1.3,2.9-1.4c1.1-0.1,2.3,0.2,3.2,0.9C63.6,18.9,64.3,20,64,21.3z"/>
				</g>
				<g>
					<path class="st6" d="M43.5,22.8l-2.5,1.4c-0.6,0.3-1.1,0.6-1.6,0.7c-0.5,0.1-1,0.2-1.6,0.2c-0.6,0-1.4,0-2.7,0.3
						c-0.7-1.2-0.4-2.5,0.3-3.4c0.6-1,1.6-1.6,2.7-1.9c1.1-0.3,2.2-0.2,3.2,0.2C42.3,20.7,43.2,21.5,43.5,22.8z"/>
				</g>
				<path class="st4" d="M51,33.7c0.7,0.2,0.9,1.5,0.2,1.9"/>
				<g>
					<path class="st6" d="M56.7,37.9c0,1-0.9,2-1.9,2.4c-1,0.5-2.2,0.5-3.6,0.5c-0.9,0-1.9,0-2.8-0.2c-0.9-0.2-1.8-0.6-2.4-1.3
						c-0.6-0.7-0.8-1.6-0.4-2.4c0.2-0.3,0.4-0.6,0.8-0.8c0.5-0.3,1-0.4,1.5-0.2c2.1,0.6,4.4,0.7,6.6,0.2c0.4-0.1,0.8,0,1.2,0.2
						C56.3,36.6,56.7,37.3,56.7,37.9z"/>
					<path class="st9" d="M55.7,36.3c-0.1,0.2-0.3,0.5-0.6,0.7c-0.6,0.4-2.7,0.9-3.9,0.9c-1.2,0-2.9-0.2-3.9-0.6
						c-0.5-0.2-0.8-0.7-0.9-1.1c0.5-0.3,1-0.4,1.5-0.2c2.1,0.6,4.4,0.7,6.6,0.2C54.9,36,55.3,36.1,55.7,36.3z"/>
					<path class="st10" d="M51,39.2c-0.5-0.3-1-0.6-1.5-0.8s-1.2-0.1-1.7,0.2c-0.5,0.3-0.7,1-0.5,1.5c0.5,0.9,1.1,1.8,2,2.4
						c0.9,0.6,1.9,1,3,0.8c1.1-0.1,2-0.8,2.4-1.8c0.4-1,0.1-2.2-0.8-2.8C53,38.2,51.7,38.4,51,39.2z"/>
				</g>
			</g>
		</g>
	</g>
</g>
</svg>
