<?xml version="1.0" encoding="utf-8"?>
<!-- Generator: Adobe Illustrator 25.2.0, SVG Export Plug-In . SVG Version: 6.00 Build 0)  -->
<svg version="1.1" id="Layer_1" xmlns="http://www.w3.org/2000/svg" xmlns:xlink="http://www.w3.org/1999/xlink" x="0px" y="0px"
	 viewBox="0 0 100 100" style="enable-background:new 0 0 100 100;" xml:space="preserve">
<style type="text/css">
	.st0{fill:#FFE3D1;}
	.st1{fill:#FFAF9C;}
	.st2{fill:none;stroke:#F77B6F;stroke-linecap:round;stroke-linejoin:round;stroke-miterlimit:10;}
</style>
<g>
	<circle class="st0" cx="50" cy="50" r="50"/>
	<g>
		<path class="st1" d="M67.5,80.5c-10.3-0.2-20.8-2.5-29.3-8.4c-8.5-5.8-14.6-15.5-14.6-25.8C23.7,36,30.9,25.7,41,23.7
			c10.6-2.2,21.8,5.3,26.1,16.2C70.4,53.3,70.4,67.6,67.5,80.5z"/>
		<g>
			<path class="st2" d="M34.3,48.4c-1.3-3,0.1-6.7,3-8.7c2.9-2,6.9-2.3,10.4-1.4c3.5,0.9,6.5,3,8.9,5.4c2.4,2.4,4.3,5.3,6.7,8
				c-2.8,0-5.4,2.4-5.2,5c0.2,2.5,3.1,4.6,6.3,5.3c0.9,2.7-1.3,5.7-4.2,6.8c-2.9,1.1-6.3,0.6-9.2-0.6"/>
			<path class="st2" d="M44.6,58.2c-1.6-3.2-1.5-7,0.2-10.1c1.7-3.1,5-5.5,8.7-6.4"/>
		</g>
	</g>
</g>
</svg>
