<?xml version="1.0" encoding="utf-8"?>
<!-- Generator: Adobe Illustrator 25.2.0, SVG Export Plug-In . SVG Version: 6.00 Build 0)  -->
<svg version="1.1" id="Layer_1" xmlns="http://www.w3.org/2000/svg" xmlns:xlink="http://www.w3.org/1999/xlink" x="0px" y="0px"
	 viewBox="0 0 100 100" style="enable-background:new 0 0 100 100;" xml:space="preserve">
<style type="text/css">
	.st0{fill:#FFE3D1;}
	.st1{fill:#FFFFFF;}
	.st2{fill:#782243;}
</style>
<g>
	<ellipse class="st0" cx="49.5" cy="48.6" rx="28.3" ry="32.2"/>
	<g>
		<path class="st1" d="M50.3,33.5c-6,0.5-11.7,5.1-14,11.5c-2.2,6-1.3,13.2,2.3,18.7c0.6,0.8,1.3,1.5,2.1,1.9c2,0.9,4.3,0.9,6.6,0.8
			c6.3-0.5,13.2-2.4,15.6-9.9c1.1-3.3,0.9-6.9-0.1-10.2C61.1,40.6,57.3,36.5,50.3,33.5z"/>
		<g>
			<path class="st2" d="M35.7,42.9c0.2-2.2,0.9-4.3,2.2-6.3c1.3-1.9,3.2-3.6,5.5-4.6c2.3-1,5-1.3,7.5-0.8c2.5,0.4,4.8,1.5,6.8,2.9
				c4,2.9,6.5,7.3,7.4,11.8c0.4,2.3,0.5,4.5,0.3,6.8c-0.3,2.2-0.9,4.3-1.9,6.3c-0.3-2.2-0.6-4.2-1.1-6.1c-0.5-1.9-1.1-3.8-1.8-5.5
				c-1.5-3.4-3.7-6.4-6.4-8.4c-2.7-2-6-3.1-9.3-2.5C41.6,37,38.4,39.6,35.7,42.9z"/>
		</g>
		<g>
			<ellipse class="st2" cx="46.1" cy="51.5" rx="8.4" ry="13.4"/>
			<path class="st1" d="M44,47.6c-1.2-2.5-0.8-5.5,1-6.5c1.7-1.1,4.1,0.2,5.3,2.7c1.2,2.5,0.8,5.5-1,6.5
				C47.6,51.4,45.2,50.2,44,47.6z"/>
		</g>
	</g>
</g>
</svg>
