<?xml version="1.0" encoding="utf-8"?>
<!-- Generator: Adobe Illustrator 25.2.0, SVG Export Plug-In . SVG Version: 6.00 Build 0)  -->
<svg version="1.1" id="Layer_1" xmlns="http://www.w3.org/2000/svg" xmlns:xlink="http://www.w3.org/1999/xlink" x="0px" y="0px"
	 viewBox="0 0 100 100" style="enable-background:new 0 0 100 100;" xml:space="preserve">
<style type="text/css">
	.st0{fill:#FFE3D1;}
	.st1{fill:#FFAF9C;}
	.st2{fill:none;stroke:#F77B6F;stroke-linecap:round;stroke-linejoin:round;stroke-miterlimit:10;}
</style>
<g>
	<circle class="st0" cx="50" cy="50" r="50"/>
	<g>
		<path class="st1" d="M67.9,32.3c0,0-17.1-19.9-22.4-14.2C40,23.8,46.8,35,46.8,35s-28.2,2.2-27.7,9.5c0.5,7.3,15.5,7,15.5,7
			s-16,8.3-13.2,13.1c2.8,4.7,20.5-0.7,20.5-0.7s-10.4,12-4.6,15.3c5.8,3.3,16.8-8.7,16.8-8.7S49.9,81.8,56,85
			c6.1,3.2,18-17.7,19.7-25.4c0.5-4,0.9-8,0.5-11.9c-0.3-4-1.4-7.9-3.7-11.2C71.4,35,70.1,33.6,67.9,32.3z"/>
		<path class="st2" d="M49.2,38.9c-2.5,6.1-0.4,13.3,5,17.1"/>
	</g>
</g>
</svg>
