<?xml version="1.0" encoding="utf-8"?>
<!-- Generator: Adobe Illustrator 25.2.0, SVG Export Plug-In . SVG Version: 6.00 Build 0)  -->
<svg version="1.1" id="Layer_1" xmlns="http://www.w3.org/2000/svg" xmlns:xlink="http://www.w3.org/1999/xlink" x="0px" y="0px"
	 viewBox="0 0 100 100" style="enable-background:new 0 0 100 100;" xml:space="preserve">
<style type="text/css">
	.st0{fill:#FFE3D1;}
	.st1{fill:#782243;}
	.st2{fill:#FFFFFF;}
	.st3{fill:#F56773;}
</style>
<g>
	<circle class="st0" cx="50" cy="50" r="50"/>
	<g>
		<path class="st1" d="M84.3,48.9c-0.1,7-5.2,13.1-11.3,16.3c-6.1,3.2-13.1,3.6-21.6,3.6c-5.6,0-11.2-0.2-16.7-1.6
			c-5.4-1.4-10.6-4.3-14-8.8c-3.4-4.5-4.7-10.9-2.5-16.1c0.9-2.2,2.6-4.1,4.5-5.4c2.7-1.8,6.1-2.6,9.2-1.5
			c12.5,4.1,26.3,4.6,39.1,1.4c2.5-0.6,5,0,7.2,1.3C81.8,40.2,84.3,44.5,84.3,48.9z"/>
		<path class="st2" d="M78.3,38c-0.6,1.6-1.7,3.3-3.6,4.7c-3.6,2.7-16.1,5.7-23.1,5.7c-7,0-17.1-1.2-23.4-4.2
			c-3.3-1.6-4.7-4.8-5.3-7.4c2.7-1.8,6.1-2.6,9.2-1.5c12.5,4.1,26.3,4.6,39.1,1.4C73.6,36.1,76.1,36.7,78.3,38z"/>
		<path class="st3" d="M50.6,57.6c-2.9-2-5.9-4.1-9.2-5.2c-3.3-1-7.1-0.9-10,1.2c-2.9,2.1-4.5,6.5-3,10c2.8,6.3,6.6,12.2,11.7,16.3
			c5.1,4.1,11.6,6.4,17.8,5.5c6.3-1,12.2-5.5,14.5-12.1c2.3-6.5,0.5-14.8-4.7-18.8C62.6,50.5,54.4,51.9,50.6,57.6z"/>
	</g>
</g>
</svg>
