<?xml version="1.0" encoding="utf-8"?>
<!-- Generator: Adobe Illustrator 25.2.0, SVG Export Plug-In . SVG Version: 6.00 Build 0)  -->
<svg version="1.1" id="Layer_1" xmlns="http://www.w3.org/2000/svg" xmlns:xlink="http://www.w3.org/1999/xlink" x="0px" y="0px"
	 viewBox="0 0 100 100" style="enable-background:new 0 0 100 100;" xml:space="preserve">
<style type="text/css">
	.st0{fill:#FFE3D1;}
	.st1{fill:#FFAF9C;}
	.st2{fill:none;stroke:#F77B6F;stroke-linecap:round;stroke-linejoin:round;stroke-miterlimit:10;}
</style>
<g>
	<circle class="st0" cx="50" cy="50" r="50"/>
	<g>
		<path class="st1" d="M35,59.1c-0.6-10.3,1.9-20.7,7-29.7c1.8-3.1,4-6.2,7.2-7.8c3.2-1.7,7.6-1.5,9.9,1.2
			c0.7,7.3,1.8,14.8,3.9,22.3c3.2,6.9,7,13.6,11.6,20.3c-0.3,4-3,7.6-6.4,9.9c-3.4,2.3-7.3,3.4-11.1,4c-3.8,0.6-7.6,1.1-11.4,1
			c-3.8-0.1-7.7-1-10.9-3.1c-3.2-2.1-5.6-5.5-5.9-9.3C28.7,64.1,30.8,60.1,35,59.1z"/>
		<path class="st2" d="M59.5,23.7c0,0,0.8,16.7,5.1,25.5c4.3,8.8,11.6,15,9.3,19.6c-4.4,8.6-16.2,10.5-16.2,10.5"/>
		<path class="st2" d="M49.9,72.8c-3.8-2.8-10-1.6-12.4,2.5"/>
	</g>
</g>
</svg>
